<svg width="117" height="34" viewBox="0 0 117 34" fill="none" xmlns="http://www.w3.org/2000/svg">
<path d="M1 17H0H1ZM7 17H6H7ZM17 27V28V27ZM27 17H28H27ZM17 0C12.4913 0 8.1673 1.79107 4.97918 4.97918L6.3934 6.3934C9.20644 3.58036 13.0218 2 17 2V0ZM4.97918 4.97918C1.79107 8.1673 0 12.4913 0 17H2C2 13.0218 3.58036 9.20644 6.3934 6.3934L4.97918 4.97918ZM0 17C0 21.5086 1.79107 25.8326 4.97918 29.0208L6.3934 27.6066C3.58036 24.7936 2 20.9782 2 17H0ZM4.97918 29.0208C8.1673 32.209 12.4913 34 17 34V32C13.0218 32 9.20644 30.4196 6.3934 27.6066L4.97918 29.0208ZM17 34C21.5086 34 25.8326 32.209 29.0208 29.0208L27.6066 27.6066C24.7936 30.4196 20.9782 32 17 32V34ZM29.0208 29.0208C32.209 25.8326 34 21.5086 34 17H32C32 20.9782 30.4196 24.7936 27.6066 27.6066L29.0208 29.0208ZM34 17C34 12.4913 32.209 8.1673 29.0208 4.97918L27.6066 6.3934C30.4196 9.20644 32 13.0218 32 17H34ZM29.0208 4.97918C25.8326 1.79107 21.5086 0 17 0V2C20.9782 2 24.7936 3.58036 27.6066 6.3934L29.0208 4.97918ZM17 6C14.0826 6 11.2847 7.15892 9.22182 9.22182L10.636 10.636C12.3239 8.94822 14.6131 8 17 8V6ZM9.22182 9.22182C7.15892 11.2847 6 14.0826 6 17H8C8 14.6131 8.94822 12.3239 10.636 10.636L9.22182 9.22182ZM6 17C6 19.9174 7.15892 22.7152 9.22182 24.7782L10.636 23.364C8.94822 21.6762 8 19.3869 8 17H6ZM9.22182 24.7782C11.2847 26.841 14.0826 28 17 28V26C14.6131 26 12.3239 25.0518 10.636 23.364L9.22182 24.7782ZM17 28C19.9174 28 22.7152 26.841 24.7782 24.7782L23.364 23.364C21.6762 25.0518 19.3869 26 17 26V28ZM24.7782 24.7782C26.841 22.7152 28 19.9174 28 17H26C26 19.3869 25.0518 21.6762 23.364 23.364L24.7782 24.7782ZM28 17C28 14.0826 26.841 11.2847 24.7782 9.22182L23.364 10.636C25.0518 12.3239 26 14.6131 26 17H28ZM24.7782 9.22182C22.7152 7.15892 19.9174 6 17 6V8C19.3869 8 21.6762 8.94822 23.364 10.636L24.7782 9.22182ZM10.3753 8.21914C6.86634 11.0263 4.86606 14.4281 4.5041 18.4095C4.14548 22.3542 5.40798 26.7296 8.13176 31.4962L9.86824 30.5038C7.25868 25.9372 6.18784 21.979 6.4959 18.5905C6.80062 15.2386 8.467 12.307 11.6247 9.78086L10.3753 8.21914ZM23.6246 25.7808C27.1294 22.977 29.1332 19.6127 29.4958 15.6632C29.855 11.7516 28.5904 7.4112 25.8682 2.6474L24.1318 3.63968C26.743 8.20924 27.8118 12.1304 27.5042 15.4804C27.2002 18.7924 25.5372 21.6896 22.3754 24.2192L23.6246 25.7808Z" fill="#222222"/>
<path d="M51.0907 23.8411L46.5195 18.3506V23.8411H44V11.5183H46.5195V17.0441L51.0907 11.5183H54.1321L48.9491 17.6267L54.2761 23.8411H51.0907Z" fill="#222222"/>
<path d="M60.3605 24C59.4006 24 58.5368 23.794 57.769 23.3821C57.0011 22.9584 56.3952 22.364 55.9513 21.599C55.5194 20.834 55.3034 19.9512 55.3034 18.9508C55.3034 17.9504 55.5254 17.0677 55.9693 16.3026C56.4252 15.5376 57.0431 14.9491 57.8229 14.5372C58.6028 14.1135 59.4726 13.9016 60.4324 13.9016C61.3923 13.9016 62.2621 14.1135 63.042 14.5372C63.8218 14.9491 64.4337 15.5376 64.8776 16.3026C65.3335 17.0677 65.5615 17.9504 65.5615 18.9508C65.5615 19.9512 65.3275 20.834 64.8596 21.599C64.4037 22.364 63.7798 22.9584 62.988 23.3821C62.2081 23.794 61.3323 24 60.3605 24ZM60.3605 21.8462C60.8164 21.8462 61.2423 21.7402 61.6382 21.5284C62.0461 21.3048 62.3701 20.9752 62.61 20.5397C62.85 20.1042 62.97 19.5746 62.97 18.9508C62.97 18.021 62.718 17.309 62.2141 16.8146C61.7222 16.3085 61.1163 16.0555 60.3965 16.0555C59.6766 16.0555 59.0707 16.3085 58.5788 16.8146C58.0989 17.309 57.8589 18.021 57.8589 18.9508C57.8589 19.8806 58.0929 20.5986 58.5608 21.1047C59.0407 21.599 59.6406 21.8462 60.3605 21.8462Z" fill="#222222"/>
<path d="M71.9808 16.0908H70.2351V23.8411H67.6796V16.0908H66.5458V14.0605H67.6796V13.5662C67.6796 12.3657 68.0275 11.483 68.7234 10.918C69.4193 10.3531 70.4691 10.0883 71.8728 10.1236V12.2068C71.2609 12.195 70.835 12.2951 70.595 12.5069C70.3551 12.7188 70.2351 13.1013 70.2351 13.6545V14.0605H71.9808V16.0908Z" fill="#222222"/>
<path d="M76.1331 10.7768V23.8411H73.6136V10.7768H76.1331Z" fill="#222222"/>
<path d="M79.9001 12.8953C79.4562 12.8953 79.0843 12.76 78.7843 12.4893C78.4964 12.2068 78.3524 11.8596 78.3524 11.4477C78.3524 11.0357 78.4964 10.6944 78.7843 10.4237C79.0843 10.1412 79.4562 10 79.9001 10C80.3441 10 80.71 10.1412 80.9979 10.4237C81.2979 10.6944 81.4478 11.0357 81.4478 11.4477C81.4478 11.8596 81.2979 12.2068 80.9979 12.4893C80.71 12.76 80.3441 12.8953 79.9001 12.8953ZM81.1419 14.0605V23.8411H78.6224V14.0605H81.1419Z" fill="#222222"/>
<path d="M96.0129 13.9193C97.2366 13.9193 98.2205 14.29 98.9643 15.0315C99.7202 15.7612 100.098 16.7852 100.098 18.1034V23.8411H97.5786V18.4388C97.5786 17.6738 97.3806 17.0912 96.9847 16.691C96.5888 16.2791 96.0489 16.0731 95.365 16.0731C94.6811 16.0731 94.1352 16.2791 93.7273 16.691C93.3314 17.0912 93.1334 17.6738 93.1334 18.4388V23.8411H90.6139V18.4388C90.6139 17.6738 90.4159 17.0912 90.02 16.691C89.6241 16.2791 89.0842 16.0731 88.4003 16.0731C87.7044 16.0731 87.1525 16.2791 86.7446 16.691C86.3487 17.0912 86.1507 17.6738 86.1507 18.4388V23.8411H83.6312V14.0605H86.1507V15.2434C86.4747 14.8314 86.8886 14.5078 87.3925 14.2724C87.9084 14.037 88.4723 13.9193 89.0842 13.9193C89.864 13.9193 90.5599 14.0841 91.1718 14.4136C91.7837 14.7314 92.2576 15.1904 92.5935 15.7907C92.9174 15.2257 93.3854 14.7726 93.9972 14.4313C94.6211 14.09 95.293 13.9193 96.0129 13.9193Z" fill="#222222"/>
<path d="M103.767 12.8953C103.323 12.8953 102.951 12.76 102.651 12.4893C102.363 12.2068 102.219 11.8596 102.219 11.4477C102.219 11.0357 102.363 10.6944 102.651 10.4237C102.951 10.1412 103.323 10 103.767 10C104.211 10 104.577 10.1412 104.865 10.4237C105.164 10.6944 105.314 11.0357 105.314 11.4477C105.314 11.8596 105.164 12.2068 104.865 12.4893C104.577 12.76 104.211 12.8953 103.767 12.8953ZM105.008 14.0605V23.8411H102.489V14.0605H105.008Z" fill="#222222"/>
<path d="M113.023 13.9193C114.211 13.9193 115.17 14.29 115.902 15.0315C116.634 15.7612 117 16.7852 117 18.1034V23.8411H114.48V18.4388C114.48 17.662 114.283 17.0677 113.887 16.6557C113.491 16.232 112.951 16.0202 112.267 16.0202C111.571 16.0202 111.019 16.232 110.611 16.6557C110.215 17.0677 110.017 17.662 110.017 18.4388V23.8411H107.498V14.0605H110.017V15.2787C110.353 14.855 110.779 14.5254 111.295 14.29C111.823 14.0429 112.399 13.9193 113.023 13.9193Z" fill="#222222"/>
</svg>
